<svg width="512" height="512" viewBox="0 0 512 512" fill="none" xmlns="http://www.w3.org/2000/svg">
<path d="M298.756 59.324H213.245C208.523 59.324 204.694 55.495 204.694 50.773V16.568C204.694 11.846 208.523 8.017 213.245 8.017H298.756C303.478 8.017 307.307 11.846 307.307 16.568V50.773C307.307 55.495 303.479 59.324 298.756 59.324Z" fill="#E2AE6B"/>
<path d="M213.245 8.017C208.523 8.017 204.694 11.846 204.694 16.568V50.773C204.694 55.495 208.523 59.324 213.245 59.324H230.347V8.017H213.245Z" fill="#A3682D"/>
<path d="M256.356 8.017H230.347V59.324H256.356V8.017Z" fill="#B9873C"/>
<path d="M298.756 8.017H273.459V59.324H298.756C303.478 59.324 307.307 55.495 307.307 50.773V16.568C307.307 11.845 303.479 8.017 298.756 8.017Z" fill="#B9873C"/>
<path d="M344.932 143.125L290.205 102.079V59.324H221.796V102.08L167.069 143.126C158.456 149.585 153.387 159.724 153.387 170.49V204.695C153.387 209.417 157.216 213.246 161.938 213.246H170.489V247.451H161.938C157.216 247.451 153.387 251.28 153.387 256.002V409.923C153.387 414.645 157.216 418.474 161.938 418.474H170.489V452.679H161.938C157.216 452.679 153.387 456.508 153.387 461.23V478.332C153.387 492.5 164.872 503.985 179.04 503.985H332.961C347.129 503.985 358.614 492.5 358.614 478.332V461.23C358.614 456.508 354.785 452.679 350.063 452.679H341.512V418.474H350.063C354.785 418.474 358.614 414.645 358.614 409.923V256C358.614 251.278 354.785 247.449 350.063 247.449H341.512V213.244H350.063C354.785 213.244 358.614 209.415 358.614 204.693V170.488C358.614 159.723 353.546 149.584 344.932 143.125Z" fill="#FFFA7A"/>
<path d="M187.591 478.33V170.489C187.591 159.723 192.66 149.585 201.273 143.125L256 102.079V59.324H221.795V102.08L167.068 143.126C158.455 149.585 153.386 159.724 153.386 170.49V204.695C153.386 209.417 157.215 213.246 161.937 213.246H170.488V247.451H161.937C157.215 247.451 153.386 251.28 153.386 256.002V409.923C153.386 414.645 157.215 418.474 161.937 418.474H170.488V452.679H161.937C157.215 452.679 153.386 456.508 153.386 461.23V478.332C153.386 492.5 164.871 503.985 179.039 503.985H213.244C199.077 503.983 187.591 492.498 187.591 478.33Z" fill="#FFFCA5"/>
<path d="M341.512 213.244H170.489V247.449H341.512V213.244Z" fill="#FFFCA5"/>
<path d="M341.512 418.472H170.489V452.677H341.512V418.472Z" fill="#FFFCA5"/>
<path d="M358.615 247.449H153.387V418.472H358.615V247.449Z" fill="#FDF300"/>
<path d="M350.063 221.261C359.199 221.261 366.631 213.829 366.631 204.693V170.488C366.631 157.27 360.318 144.642 349.743 136.71L298.222 98.071V67.34H298.756C307.892 67.34 315.324 59.908 315.324 50.772V16.568C315.324 7.432 307.892 0 298.756 0H213.245C204.109 0 196.677 7.432 196.677 16.568V50.773C196.677 59.909 204.109 67.341 213.245 67.341H213.779V98.072L199.883 108.494C196.342 111.15 195.623 116.176 198.28 119.717C200.937 123.259 205.962 123.977 209.503 121.32L226.605 108.493C228.624 106.979 229.812 104.602 229.812 102.08V67.34H282.188V102.079C282.188 104.602 283.376 106.979 285.395 108.492L340.122 149.536C346.681 154.456 350.597 162.288 350.597 170.487V204.692C350.597 204.986 350.356 205.226 350.063 205.226H341.512C337.084 205.226 333.495 208.814 333.495 213.243V239.431H178.505V213.243C178.505 208.815 174.916 205.226 170.488 205.226H161.937C161.642 205.226 161.403 204.985 161.403 204.692V170.487C161.403 162.288 165.319 154.456 171.878 149.536L183.85 140.558C187.391 137.902 188.11 132.877 185.453 129.335C182.797 125.793 177.77 125.075 174.23 127.732L162.257 136.71C151.681 144.642 145.368 157.269 145.368 170.488V204.693C145.368 213.829 152.8 221.261 161.936 221.261H162.47V239.432H161.936C152.8 239.432 145.368 246.864 145.368 256V409.921C145.368 410.199 145.382 410.473 145.41 410.743C145.843 419.496 153.079 426.489 161.937 426.489H162.471V444.66H161.937C152.801 444.66 145.369 452.092 145.369 461.228V478.33C145.369 496.896 160.474 512 179.039 512H273.102C277.53 512 281.119 508.412 281.119 503.983C281.119 499.554 277.531 495.966 273.102 495.966H179.04C169.315 495.966 161.403 488.054 161.403 478.329V461.227C161.403 460.933 161.642 460.693 161.937 460.693H170.488C174.915 460.693 178.505 457.105 178.505 452.676V426.488H333.495V452.676C333.495 457.104 337.083 460.693 341.512 460.693H350.063C350.357 460.693 350.597 460.934 350.597 461.227V478.329C350.597 488.054 342.685 495.966 332.96 495.966H307.307C302.879 495.966 299.29 499.554 299.29 503.983C299.29 508.412 302.878 512 307.307 512H332.96C351.526 512 366.63 496.895 366.63 478.33V461.228C366.63 452.092 359.198 444.66 350.062 444.66H349.528V426.489H350.062C358.92 426.489 366.156 419.496 366.588 410.743C366.616 410.473 366.63 410.199 366.63 409.921V256C366.63 246.864 359.198 239.432 350.062 239.432H349.528V221.261H350.063ZM213.245 51.307C212.95 51.307 212.711 51.066 212.711 50.773V16.568C212.711 16.274 212.95 16.034 213.245 16.034H298.756C299.05 16.034 299.29 16.275 299.29 16.568V50.773C299.29 51.067 299.049 51.307 298.756 51.307H213.245V51.307ZM350.063 255.466C350.357 255.466 350.597 255.707 350.597 256V409.921C350.597 410.215 350.356 410.455 350.063 410.455H161.938C161.643 410.455 161.404 410.214 161.404 409.921V256C161.404 255.706 161.643 255.466 161.938 255.466H350.063Z" fill="black"/>
<path d="M196.143 169.954H264.552C268.98 169.954 272.569 166.366 272.569 161.937C272.569 157.509 268.981 153.92 264.552 153.92H196.143C191.716 153.92 188.126 157.508 188.126 161.937C188.126 166.366 191.715 169.954 196.143 169.954Z" fill="black"/>
<path d="M315.859 169.954C320.287 169.954 323.876 166.366 323.876 161.937C323.876 157.509 320.288 153.92 315.859 153.92H298.757C294.329 153.92 290.74 157.508 290.74 161.937C290.74 166.365 294.328 169.954 298.757 169.954H315.859Z" fill="black"/>
</svg>
