<svg id="Capa_1" enable-background="new 0 0 512 512" height="512" viewBox="0 0 512 512" width="512" xmlns="http://www.w3.org/2000/svg"><g><g><path d="m194.48 7.5h79.828v346.997h-79.828z" fill="#d3effb"/><path d="m254.248 7.5h20.06v346.996h-20.06z" fill="#bed8fb"/></g><path d="m241.252 504.5h-13.716c-5.217 0-9.687-3.734-10.614-8.868l-22.442-124.214 11.212-20h52.223l16.393 20-22.442 124.213c-.928 5.134-5.397 8.869-10.614 8.869z" fill="#d3effb"/><path d="m194.48 371.418 3.126 17.304h35.888c10.811 0 18.986 9.784 17.064 20.423l-17.228 95.355h7.921c5.217 0 9.687-3.734 10.614-8.868l22.442-124.213-18.308-20h-48.465z" fill="#bed8fb"/><path d="m169.247 334.496h130.293v36.922h-130.293z" fill="#d0cee7"/><path d="m279.332 334.496h20.208v36.922h-20.208z" fill="#beb9dd"/><path d="m160.714 388.722h-13.624c-4.713 0-8.533-3.821-8.533-8.534v-54.464c0-4.713 3.821-8.533 8.533-8.533h13.624c4.713 0 8.533 3.821 8.533 8.533v54.464c0 4.714-3.82 8.534-8.533 8.534z" fill="#26457d"/><path d="m367.841 389.908h-62.698c-3.094 0-5.602-2.508-5.602-5.602v-62.698c0-3.094 2.508-5.602 5.602-5.602h62.698c3.094 0 5.602 2.508 5.602 5.602v62.698c0 3.094-2.508 5.602-5.602 5.602z" fill="#26457d"/><path d="m367.841 316.006h-19.472c3.094 0 5.602 2.508 5.602 5.602v62.698c0 3.094-2.508 5.602-5.602 5.602h19.472c3.094 0 5.602-2.508 5.602-5.602v-62.698c0-3.094-2.508-5.602-5.602-5.602z" fill="#21386b"/><path d="m351.961 316.006h-30.938v-51.52c0-5.9 4.783-10.683 10.683-10.683h9.572c5.9 0 10.683 4.783 10.683 10.683z" fill="#d0cee7"/><path d="m321.023 297.545h30.938v18.461h-30.938z" fill="#beb9dd"/><path d="m351.961 389.908h-30.938v51.52c0 5.9 4.783 10.683 10.683 10.683h9.572c5.9 0 10.683-4.783 10.683-10.683z" fill="#d0cee7"/><path d="m321.023 389.908h30.938v18.461h-30.938z" fill="#beb9dd"/><g><path d="m247.537 52.645h-9.143c-4.143 0-7.5 3.357-7.5 7.5s3.357 7.5 7.5 7.5h9.143c4.143 0 7.5-3.357 7.5-7.5s-3.358-7.5-7.5-7.5z"/><path d="m247.537 86.391h-9.143c-4.143 0-7.5 3.357-7.5 7.5s3.357 7.5 7.5 7.5h9.143c4.143 0 7.5-3.357 7.5-7.5s-3.358-7.5-7.5-7.5z"/><path d="m247.537 120.138h-9.143c-4.143 0-7.5 3.357-7.5 7.5s3.357 7.5 7.5 7.5h9.143c4.143 0 7.5-3.357 7.5-7.5s-3.358-7.5-7.5-7.5z"/><path d="m247.537 153.884h-9.143c-4.143 0-7.5 3.357-7.5 7.5s3.357 7.5 7.5 7.5h9.143c4.143 0 7.5-3.357 7.5-7.5s-3.358-7.5-7.5-7.5z"/><path d="m247.537 187.63h-9.143c-4.143 0-7.5 3.357-7.5 7.5s3.357 7.5 7.5 7.5h9.143c4.143 0 7.5-3.357 7.5-7.5s-3.358-7.5-7.5-7.5z"/><path d="m247.537 221.377h-9.143c-4.143 0-7.5 3.357-7.5 7.5s3.357 7.5 7.5 7.5h9.143c4.143 0 7.5-3.357 7.5-7.5s-3.358-7.5-7.5-7.5z"/><path d="m247.537 255.123h-9.143c-4.143 0-7.5 3.357-7.5 7.5s3.357 7.5 7.5 7.5h9.143c4.143 0 7.5-3.357 7.5-7.5s-3.358-7.5-7.5-7.5z"/><path d="m332.404 345.457c-4.143 0-7.5 3.357-7.5 7.5s3.357 7.5 7.5 7.5h8.176c4.143 0 7.5-3.357 7.5-7.5s-3.357-7.5-7.5-7.5z"/><path d="m373.443 346.25c4.143 0 7.5-3.357 7.5-7.5v-17.142c0-7.225-5.878-13.103-13.103-13.103h-8.38v-44.02c0-10.026-8.156-18.184-18.183-18.184h-9.572c-10.026 0-18.183 8.157-18.183 18.184v44.02h-8.38c-7.225 0-13.103 5.878-13.103 13.103v5.388h-10.232v-261.308c0-4.143-3.357-7.5-7.5-7.5s-7.5 3.357-7.5 7.5v261.308h-64.827v-311.996h64.828v20.702c0 4.143 3.357 7.5 7.5 7.5s7.5-3.357 7.5-7.5v-20.702h8.907c4.143 0 7.5-3.357 7.5-7.5s-3.357-7.5-7.5-7.5h-112.643c-4.143 0-7.5 3.357-7.5 7.5s3.357 7.5 7.5 7.5h8.908v311.996h-10.232v-1.271c0-8.841-7.192-16.034-16.033-16.034h-13.625c-8.841 0-16.033 7.193-16.033 16.034v54.464c0 8.841 7.192 16.033 16.033 16.033h13.624c8.841 0 16.033-7.192 16.033-16.033v-1.271h11.466l9.125 50.505c.736 4.075 4.632 6.776 8.715 6.047 4.075-.737 6.783-4.639 6.047-8.714l-8.644-47.838h61.875l-20.847 115.38c-.282 1.565-1.643 2.702-3.233 2.702h-13.715c-1.591 0-2.951-1.136-3.233-2.702l-6.785-37.555c-.737-4.077-4.645-6.783-8.714-6.048-4.076.736-6.784 4.638-6.048 8.714l6.785 37.554c1.572 8.713 9.141 15.037 17.995 15.037h13.715c8.853 0 16.421-6.323 17.995-15.036l21.328-118.046h11.466v5.388c0 7.225 5.878 13.103 13.103 13.103h8.38v44.021c0 10.026 8.156 18.183 18.183 18.183h9.572c10.026 0 18.183-8.156 18.183-18.183v-44.021h8.38c7.225 0 13.103-5.878 13.103-13.103v-15.569c0-4.143-3.357-7.5-7.5-7.5s-7.5 3.357-7.5 7.5v13.672h-58.902v-58.902h58.902v15.244c-.001 4.142 3.356 7.499 7.499 7.499zm-28.983 51.158v44.021c0 1.755-1.428 3.183-3.183 3.183h-9.572c-1.755 0-3.183-1.428-3.183-3.183v-44.021zm-182.712-17.219c0 .569-.464 1.033-1.033 1.033h-13.625c-.569 0-1.033-.464-1.033-1.033v-54.464c0-.57.464-1.034 1.033-1.034h13.624c.569 0 1.033.464 1.033 1.034v54.464zm15-16.271v-21.922h115.293v21.922zm151.775-55.412v-44.02c0-1.756 1.428-3.184 3.183-3.184h9.572c1.755 0 3.183 1.428 3.183 3.184v44.02z"/></g></g></svg>