<svg id="color_line" height="512" viewBox="0 0 74 74" width="512" xmlns="http://www.w3.org/2000/svg" data-name="color line"><rect fill="#bbbbcd" height="25.841" rx="2.83" width="59.871" x="6.98" y="42.068"/><rect fill="#bbbbcd" height="25.841" rx="2.83" width="59.871" x="6.98" y="42.068"/><path d="m66.85 44.9v20.18a2.834 2.834 0 0 1 -2.83 2.83h-54.21a2.838 2.838 0 0 1 -2.83-2.75h54.29a2.834 2.834 0 0 0 2.83-2.83v-20.26a2.831 2.831 0 0 1 2.75 2.83z" fill="#9297ab"/><path d="m15.355 37.875h43.121a2.1 2.1 0 0 1 2.1 2.1v2.092a0 0 0 0 1 0 0h-47.322a0 0 0 0 1 0 0v-2.091a2.1 2.1 0 0 1 2.101-2.101z" fill="#9297ab"/><path d="m60.576 42.567h-47.322a.5.5 0 0 1 -.5-.5v-2.091a2.6 2.6 0 0 1 2.6-2.6h43.122a2.6 2.6 0 0 1 2.6 2.6v2.092a.5.5 0 0 1 -.5.499zm-46.822-1h46.322v-1.591a1.6 1.6 0 0 0 -1.6-1.6h-43.122a1.6 1.6 0 0 0 -1.6 1.6z" fill="#323c6b"/><path d="m29.712 49.633h19.663v10.198h-19.663z" fill="#89c5cd"/><path d="m49.375 60.331h-19.663a.5.5 0 0 1 -.5-.5v-10.2a.5.5 0 0 1 .5-.5h19.663a.5.5 0 0 1 .5.5v10.2a.5.5 0 0 1 -.5.5zm-19.163-1h18.663v-9.2h-18.663z" fill="#323c6b"/><path d="m15.642 59.151a1.826 1.826 0 1 1 -1.822-1.83 1.823 1.823 0 0 1 1.822 1.83z" fill="#27ccbc"/><path d="m13.82 61.473a2.326 2.326 0 1 1 2.322-2.322 2.328 2.328 0 0 1 -2.322 2.322zm0-3.652a1.326 1.326 0 1 0 1.322 1.33 1.332 1.332 0 0 0 -1.322-1.33z" fill="#323c6b"/><path d="m15.642 51.091a1.826 1.826 0 1 1 -1.822-1.822 1.83 1.83 0 0 1 1.822 1.822z" fill="#fe7058"/><path d="m13.82 53.421a2.326 2.326 0 1 1 2.322-2.331 2.333 2.333 0 0 1 -2.322 2.331zm0-3.652a1.326 1.326 0 1 0 1.322 1.321 1.327 1.327 0 0 0 -1.322-1.32z" fill="#323c6b"/><path d="m23.969 59.151a1.826 1.826 0 1 1 -1.822-1.83 1.823 1.823 0 0 1 1.822 1.83z" fill="#27ccbc"/><path d="m22.146 61.473a2.326 2.326 0 1 1 2.322-2.322 2.328 2.328 0 0 1 -2.322 2.322zm0-3.652a1.326 1.326 0 1 0 1.322 1.33 1.332 1.332 0 0 0 -1.322-1.33z" fill="#323c6b"/><path d="m20.317 51.091a1.826 1.826 0 1 1 1.83 1.83 1.824 1.824 0 0 1 -1.83-1.83z" fill="#fe7058"/><path d="m22.146 53.421a2.326 2.326 0 1 1 2.322-2.331 2.333 2.333 0 0 1 -2.322 2.331zm0-3.652a1.326 1.326 0 1 0 1.322 1.321 1.327 1.327 0 0 0 -1.322-1.32z" fill="#323c6b"/><circle cx="58.201" cy="54.732" fill="#eeefee" r="3.954"/><path d="m58.2 59.186a4.454 4.454 0 1 1 4.455-4.454 4.459 4.459 0 0 1 -4.455 4.454zm0-7.908a3.454 3.454 0 1 0 3.455 3.454 3.458 3.458 0 0 0 -3.455-3.454z" fill="#323c6b"/><path d="m61.677 58.708a.5.5 0 0 1 -.354-.146l-6.952-6.953a.5.5 0 0 1 .707-.707l6.952 6.953a.5.5 0 0 1 -.354.854z" fill="#323c6b"/><path d="m51.808 4.063-4.365 5.356v25.889a2.567 2.567 0 0 1 -2.567 2.567h-20.286a2.567 2.567 0 0 1 -2.567-2.567v-31.245z" fill="#eeefee"/><path d="m51.81 4.06-4.37 5.36v25.89a2.567 2.567 0 0 1 -2.56 2.57h-20.29a2.564 2.564 0 0 1 -2.51-2.02c.11.01.22.02.33.02h20.28a2.569 2.569 0 0 0 2.57-2.57v-25.89l2.73-3.36z" fill="#e1e6e9"/><path d="m43.435 23.8v10.568h-17.408v-12.663a6.877 6.877 0 0 1 1.992.834 5.734 5.734 0 0 0 2.6.927c1.145.019 2.185-.653 3.28-.99a9.684 9.684 0 0 1 5.284.237c1.417.374 2.817.86 4.252 1.087z" fill="#fe7058"/><path d="m43.435 34.868h-17.408a.5.5 0 0 1 -.5-.5v-12.662a.5.5 0 0 1 .592-.491 7.238 7.238 0 0 1 2.143.888 5.346 5.346 0 0 0 2.365.864 5.036 5.036 0 0 0 2.016-.548c.368-.152.736-.3 1.111-.419a10.254 10.254 0 0 1 5.56.231c.43.114.858.238 1.288.362a24.833 24.833 0 0 0 2.912.716.5.5 0 0 1 .421.494v10.565a.5.5 0 0 1 -.5.5zm-16.907-1h16.407v-9.646c-.889-.171-1.762-.423-2.61-.669-.423-.122-.845-.244-1.268-.356a9.365 9.365 0 0 0 -5.011-.242c-.344.106-.682.247-1.021.387a5.9 5.9 0 0 1 -2.413.625 6.179 6.179 0 0 1 -2.835-.989 9.484 9.484 0 0 0 -1.25-.611z" fill="#323c6b"/><path d="m44.094 10.7h-.623a.5.5 0 0 1 0-1h.623a.5.5 0 0 1 0 1z" fill="#323c6b"/><path d="m44.094 13.822h-1.052a.5.5 0 0 1 0-1h1.052a.5.5 0 0 1 0 1z" fill="#323c6b"/><path d="m44.094 16.946h-.623a.5.5 0 0 1 0-1h.623a.5.5 0 0 1 0 1z" fill="#323c6b"/><path d="m44.094 20.07h-1.052a.5.5 0 0 1 0-1h1.052a.5.5 0 0 1 0 1z" fill="#323c6b"/><path d="m11.99 67.909h6.629a0 0 0 0 1 0 0v3.279a.875.875 0 0 1 -.875.875h-4.879a.875.875 0 0 1 -.875-.875v-3.279a0 0 0 0 1 0 0z" fill="#84879c"/><path d="m17.744 72.563h-4.879a1.377 1.377 0 0 1 -1.375-1.375v-3.279a.5.5 0 0 1 .5-.5h6.629a.5.5 0 0 1 .5.5v3.279a1.377 1.377 0 0 1 -1.375 1.375zm-5.254-4.154v2.779a.375.375 0 0 0 .375.375h4.879a.375.375 0 0 0 .375-.375v-2.779z" fill="#323c6b"/><path d="m55.211 67.909h6.629a0 0 0 0 1 0 0v3.279a.875.875 0 0 1 -.875.875h-4.879a.875.875 0 0 1 -.875-.875v-3.279a0 0 0 0 1 0 0z" fill="#84879c"/><g fill="#323c6b"><path d="m60.965 72.563h-4.879a1.377 1.377 0 0 1 -1.375-1.375v-3.279a.5.5 0 0 1 .5-.5h6.629a.5.5 0 0 1 .5.5v3.279a1.377 1.377 0 0 1 -1.375 1.375zm-5.254-4.154v2.779a.375.375 0 0 0 .375.375h4.879a.375.375 0 0 0 .375-.375v-2.779z"/><path d="m66.2 70.98a.5.5 0 0 1 -.187-.964 5.3 5.3 0 0 0 3.34-4.937v-.829a.5.5 0 0 1 1 0v.829a6.3 6.3 0 0 1 -3.965 5.865.508.508 0 0 1 -.188.036z"/><path d="m69.851 62.781a.5.5 0 0 1 -.5-.5v-.312a.5.5 0 0 1 1 0v.313a.5.5 0 0 1 -.5.499z"/><path d="m19.022 20.313a.5.5 0 0 1 -.5-.5v-.5a.5.5 0 0 1 1 0v.5a.5.5 0 0 1 -.5.5z"/><path d="m19.022 17.688a.5.5 0 0 1 -.5-.5v-6.375a.5.5 0 0 1 1 0v6.375a.5.5 0 0 1 -.5.5z"/><path d="m64.021 68.409h-54.211a3.334 3.334 0 0 1 -3.33-3.33v-20.179a3.334 3.334 0 0 1 3.33-3.331h54.211a3.334 3.334 0 0 1 3.33 3.331v20.179a3.334 3.334 0 0 1 -3.33 3.33zm-54.211-25.842a2.333 2.333 0 0 0 -2.331 2.333v20.179a2.333 2.333 0 0 0 2.33 2.33h54.212a2.333 2.333 0 0 0 2.33-2.33v-20.179a2.333 2.333 0 0 0 -2.33-2.331z"/><path d="m44.875 38.375h-20.285a3.071 3.071 0 0 1 -3.067-3.067v-31.245a.5.5 0 0 1 .5-.5h29.785a.5.5 0 0 1 .388.816l-4.254 5.221v25.708a3.071 3.071 0 0 1 -3.067 3.067zm-22.353-33.812v30.745a2.07 2.07 0 0 0 2.067 2.067h20.286a2.07 2.07 0 0 0 2.067-2.067v-25.889a.5.5 0 0 1 .112-.316l3.7-4.54z"/></g><path d="m27.692 46.29a.731.731 0 0 1 .016-1.462l8.1-.022a.731.731 0 1 1 -.016 1.462z" fill="#fff"/><path d="m38.552 46.284a.731.731 0 0 1 .012-1.462h.293a.731.731 0 1 1 -.006 1.462h-.3z" fill="#fff"/></svg>