<svg id="Capa_1" enable-background="new 0 0 506.238 506.238" height="512" viewBox="0 0 506.238 506.238" width="512" xmlns="http://www.w3.org/2000/svg"><g><g><g><g><path d="m353.136 425.579c.425-34.017-40.591-95.873-61.622-125.318-7.879-11.031-12.108-24.24-12.108-37.795v-186.446h-26.291-26.291v186.447c0 13.555-4.23 26.765-12.108 37.795-21.031 29.444-62.047 91.301-61.622 125.318 0 0-8.573 76.017 93.164 73.159 4.57 0 9.164-.128 13.717 0 101.735 2.856 93.161-73.16 93.161-73.16z" fill="#bcf7e7"/></g><g><path d="m237.928 498.736c1.415.04 2.8.059 4.165.069-2.83.03-5.58-.02-8.232-.129 1.356.001 2.721.02 4.067.06z" fill="#abefd9"/></g><g><path d="m259.971 498.736c-3.562-.099-7.153-.04-10.735-.02 89.767-2.879 81.852-73.135 81.852-73.135.425-34.015-40.595-95.872-61.619-125.316-7.885-11.032-12.11-24.24-12.11-37.795v-186.45h22.044v186.45c0 13.555 4.235 26.763 12.11 37.795 21.034 29.444 62.044 91.301 61.619 125.316 0 0 8.578 76.014-93.161 73.155z" fill="#abefd9"/></g><g><path d="m249.078 498.726c-2.266.069-4.591.099-6.985.079 1.365-.01 2.75-.03 4.165-.069.94 0 1.88-.01 2.82-.01z" fill="#abefd9"/></g><g><path d="m156.492 459.296c-3.109 0-6.005-1.968-7.04-5.08-4.701-14.133-4.008-26.305-3.782-28.952-.135-35.561 39.377-96.233 63.007-129.315 7.017-9.823 10.726-21.4 10.726-33.482v-186.447c0-4.098 3.322-7.42 7.42-7.42h52.581c4.099 0 7.42 3.322 7.42 7.42v148.903c0 4.098-3.322 7.42-7.42 7.42-4.099 0-7.42-3.322-7.42-7.42v-141.482h-37.741v179.026c0 15.193-4.665 29.753-13.491 42.108-38.569 53.997-60.526 98.068-60.24 120.912.004.308-.012.617-.046.924-.008.079-1.064 10.703 3.067 23.121 1.293 3.889-.81 8.09-4.699 9.383-.775.258-1.565.381-2.342.381z"/></g><g><path d="m265.506 506.238c-1.888 0-3.801-.028-5.741-.082-2.896-.082-5.796-.053-8.864-.026-1.514.014-3.028.028-4.539.029-32.684.902-58.11-5.997-75.575-20.508-3.152-2.618-3.585-7.297-.966-10.449s7.298-3.585 10.449-.965c14.627 12.151 36.753 17.892 65.779 17.084 1.559-.041 3.142-.016 4.714-.031 3.07-.03 6.243-.058 9.419.031 32.807.922 56.717-6.503 71.022-22.066 17.075-18.578 14.587-42.604 14.56-42.844-.034-.307-.049-.615-.045-.925.285-22.842-21.672-66.913-60.242-120.912-8.825-12.357-13.49-26.917-13.49-42.108v-2.915c0-4.099 3.322-7.42 7.42-7.42 4.099 0 7.42 3.322 7.42 7.42v2.915c0 12.079 3.709 23.657 10.727 33.482 23.627 33.081 63.137 93.746 63.007 129.306.368 4.215 1.908 31.914-18.43 54.043-16.444 17.889-42.204 26.94-76.625 26.941z"/></g><g><path d="m282.336 36.646c0-16.767-14.122-30.236-31.12-29.162-14.612.923-26.455 12.859-27.276 27.478-.459 8.173 2.447 15.663 7.456 21.223 2.283 2.534 3.637 5.768 3.637 9.179v10.656h36.164v-10.4c0-3.552 1.402-6.921 3.763-9.575 4.587-5.159 7.376-11.952 7.376-19.399z" fill="#a1a1a7"/></g><g><path d="m282.341 36.643c0 7.45-2.79 14.247-7.381 19.402-2.365 2.652-3.76 6.025-3.76 9.577v10.398h-14.87v-10.398c0-3.552 1.405-6.926 3.76-9.577 4.591-5.155 7.381-11.952 7.381-19.402 0-13.555-9.241-24.962-21.767-28.257 1.781-.475 3.621-.782 5.511-.9 16.998-1.079 31.126 12.396 31.126 29.157z" fill="#7c8388"/></g><g><path d="m271.197 83.44h-36.164c-4.098 0-7.42-3.322-7.42-7.42v-10.656c0-1.478-.615-2.973-1.73-4.212-6.583-7.308-9.904-16.757-9.351-26.606 1.039-18.483 15.749-33.301 34.217-34.468 10.246-.657 19.987 2.851 27.442 9.85 7.351 6.901 11.566 16.639 11.566 26.718 0 8.98-3.286 17.621-9.252 24.33-1.217 1.369-1.888 3.018-1.888 4.645v10.399c0 4.097-3.322 7.42-7.42 7.42zm-28.744-14.841h21.323v-2.979c0-5.267 2.003-10.419 5.64-14.507 3.547-3.988 5.501-9.127 5.501-14.467 0-6.085-2.444-11.731-6.883-15.898-4.435-4.163-10.238-6.235-16.35-5.859-10.796.682-19.728 9.682-20.335 20.489-.329 5.869 1.645 11.494 5.56 15.84 3.575 3.97 5.544 8.993 5.544 14.145z"/></g><g><path d="m286.719 134.463h-67.21c-3.4 0-6.156-2.756-6.156-6.156v-46.132c0-3.4 2.756-6.156 6.156-6.156h67.21c3.4 0 6.156 2.756 6.156 6.156v46.132c0 3.401-2.756 6.156-6.156 6.156z" fill="#5ee2c5"/></g><g><path d="m292.878 82.174v46.135c0 3.394-2.76 6.154-6.154 6.154h-19.253c3.394 0 6.154-2.76 6.154-6.154v-46.135c0-3.394-2.76-6.154-6.154-6.154h19.253c3.394 0 6.154 2.761 6.154 6.154z" fill="#00d3b4"/></g><g><path d="m286.72 141.884h-67.21c-7.486 0-13.577-6.09-13.577-13.577v-46.132c0-7.486 6.09-13.577 13.577-13.577h67.21c7.486 0 13.576 6.09 13.576 13.577v46.132c0 7.487-6.09 13.577-13.576 13.577zm-65.946-14.841h64.681v-43.603h-64.681z"/></g></g><g><g><path d="m217.642 390.739h-6.497c-4.098 0-7.42-3.322-7.42-7.42 0-4.099 3.322-7.42 7.42-7.42h6.497c4.098 0 7.42 3.322 7.42 7.42.001 4.098-3.322 7.42-7.42 7.42z"/></g><g><path d="m233.044 417.854h-21.899c-4.098 0-7.42-3.322-7.42-7.42s3.322-7.42 7.42-7.42h21.899c4.098 0 7.42 3.322 7.42 7.42s-3.322 7.42-7.42 7.42z"/></g><g><path d="m233.044 362.877h-21.899c-4.098 0-7.42-3.322-7.42-7.42 0-4.099 3.322-7.42 7.42-7.42h21.899c4.098 0 7.42 3.322 7.42 7.42.001 4.098-3.322 7.42-7.42 7.42z"/></g><g><path d="m217.642 443.854h-6.497c-4.098 0-7.42-3.322-7.42-7.42 0-4.099 3.322-7.42 7.42-7.42h6.497c4.098 0 7.42 3.322 7.42 7.42.001 4.099-3.322 7.42-7.42 7.42z"/></g><g><path d="m233.044 470.474h-21.899c-4.098 0-7.42-3.322-7.42-7.42 0-4.099 3.322-7.42 7.42-7.42h21.899c4.098 0 7.42 3.322 7.42 7.42.001 4.098-3.322 7.42-7.42 7.42z"/></g></g></g></g></svg>