<?xml version="1.0" encoding="iso-8859-1"?>
<!-- Generator: Adobe Illustrator 19.0.0, SVG Export Plug-In . SVG Version: 6.00 Build 0)  -->
<svg version="1.1" id="Capa_1" xmlns="http://www.w3.org/2000/svg" xmlns:xlink="http://www.w3.org/1999/xlink" x="0px" y="0px"
	 viewBox="0 0 512 512" style="enable-background:new 0 0 512 512;" xml:space="preserve">
<path style="fill:#FF403D;" d="M341.711,105.714l84.755-84.755c17.832-17.832,46.743-17.832,64.576,0l0,0
	c17.832,17.832,17.832,46.743,0,64.576l-84.755,84.755"/>
<path style="fill:#BF302E;" d="M372.653,107.059l60.539-60.539c17.832-17.832,46.743-17.832,64.576,0l0,0
	c2.58,2.58,4.774,5.397,6.608,8.374c0.438-12.229-4-24.6-13.334-33.936l0,0c-17.832-17.832-46.743-17.832-64.576,0l-84.755,84.755
	l64.576,64.576l14.798-14.798L372.653,107.059z"/>
<rect x="301.011" y="134.89" transform="matrix(-0.7071 -0.7071 0.7071 -0.7071 511.6446 512.1512)" style="fill:#FF403D;" width="121.763" height="30.441"/>
<rect x="294.957" y="149.505" transform="matrix(-0.7071 -0.7071 0.7071 -0.7071 497.0323 518.1998)" style="fill:#BF302E;" width="121.763" height="13.313"/>
<path style="fill:#DAEDF7;" d="M324.222,133.966l-257.74,257.74c-11.87,11.87-20.813,26.34-26.121,42.265l0,0
	c-5.308,15.925-14.251,30.395-26.121,42.265l-3.475,3.475l21.525,21.525l3.475-3.475c11.87-11.87,26.34-20.813,42.265-26.121l0,0
	c15.925-5.308,30.395-14.251,42.265-26.121l257.74-257.74"/>
<path style="fill:#FFFFFF;" d="M67.266,460.877L67.266,460.877c5.308-15.925,14.251-30.395,26.121-42.265l257.74-257.74
	l-25.561-28.251L66.481,391.706c-11.87,11.87-20.813,26.34-26.121,42.265l0,0c-5.308,15.925-14.251,30.395-26.121,42.265
	l-3.475,3.475l21.525,21.525l3.475-3.475c6.808-6.808,14.475-12.647,22.778-17.396C62.072,474.192,65.002,467.669,67.266,460.877z"
	/>
<path d="M496.423,15.578c-20.77-20.77-54.566-20.771-75.337,0l-80.719,80.719l-10.763-10.763l-32.288,32.288l96.862,96.862
	l32.287-32.288l-10.763-10.763l80.72-80.719C517.192,70.145,517.192,36.349,496.423,15.578z M394.178,193.16l-75.339-75.339
	l10.763-10.762l75.338,75.338L394.178,193.16z M404.94,160.872l-53.813-53.813l80.718-80.719c14.836-14.837,38.977-14.836,53.813,0
	s14.836,38.977,0,53.813L404.94,160.872z"/>
<rect x="365.959" y="115.593" transform="matrix(-0.7071 -0.7071 0.7071 -0.7071 576.587 485.2375)" width="45.661" height="15.22"/>
<g>
	<path style="fill:#FFFFFF;" d="M442.609,47.866l-10.762-10.763l5.381-5.381c11.869-11.869,31.182-11.869,43.05,0l-10.762,10.762
		c-5.934-5.934-15.59-5.934-21.525,0L442.609,47.866z"/>
	
		<rect x="413.477" y="51.008" transform="matrix(-0.7071 -0.7071 0.7071 -0.7071 677.3916 397.8208)" style="fill:#FFFFFF;" width="15.22" height="15.22"/>
</g>
<path d="M32.288,512L0,479.712l8.857-8.857c10.977-10.977,19.374-24.564,24.283-39.29c5.652-16.956,15.32-32.599,27.96-45.239
	l241.596-241.597l10.762,10.762L71.862,397.088c-10.977,10.977-19.374,24.564-24.283,39.29
	c-5.369,16.105-14.359,31.025-26.077,43.311l10.808,10.808c12.287-11.718,27.207-20.709,43.312-26.077
	c14.726-4.908,28.312-13.305,39.29-24.283l241.597-241.596l10.762,10.762L125.675,450.9c-12.64,12.64-28.284,22.308-45.239,27.96
	c-14.726,4.909-28.313,13.306-39.29,24.283L32.288,512z"/>
<rect x="208.995" y="287.788" transform="matrix(-0.7071 -0.7071 0.7071 -0.7071 160.8898 657.4396)" style="fill:#FF403D;" width="15.22" height="15.22"/>
<rect x="174.47" y="314.698" transform="matrix(-0.7071 -0.7071 0.7071 -0.7071 95.9156 684.3462)" width="30.441" height="15.22"/>
<rect x="262.799" y="233.979" transform="matrix(-0.7071 -0.7071 0.7071 -0.7071 290.7891 603.6264)" style="fill:#FF403D;" width="15.22" height="15.22"/>
<rect x="228.275" y="260.878" transform="matrix(-0.7071 -0.7071 0.7071 -0.7071 225.8221 630.5157)" width="30.441" height="15.22"/>
<rect x="316.604" y="180.159" transform="matrix(-0.7071 -0.7071 0.7071 -0.7071 420.6955 549.7959)" style="fill:#FF403D;" width="15.22" height="15.22"/>
<rect x="282.104" y="207.069" transform="matrix(-0.7071 -0.7071 0.7071 -0.7071 355.7632 576.7198)" width="30.441" height="15.22"/>
<rect x="155.173" y="341.609" transform="matrix(-0.7071 -0.7071 0.7071 -0.7071 30.953 711.2597)" style="fill:#FF403D;" width="15.22" height="15.22"/>
<rect x="120.666" y="368.508" transform="matrix(-0.7071 -0.7071 0.7071 -0.7071 -33.9837 738.1594)" width="30.441" height="15.22"/>
<rect x="101.361" y="395.418" transform="matrix(-0.7071 -0.7071 0.7071 -0.7071 -98.9577 765.066)" style="fill:#FF403D;" width="15.22" height="15.22"/>
<g>
</g>
<g>
</g>
<g>
</g>
<g>
</g>
<g>
</g>
<g>
</g>
<g>
</g>
<g>
</g>
<g>
</g>
<g>
</g>
<g>
</g>
<g>
</g>
<g>
</g>
<g>
</g>
<g>
</g>
</svg>
