<svg enable-background="new 0 0 110 110" height="512" viewBox="0 0 110 110" width="512" xmlns="http://www.w3.org/2000/svg"><path d="m37.971596 13.290379h34.056732v81.549599h-34.056732z" fill="#e6e9ef"/><path d="m40.47216 52.5355h29.055576v38.271736h-29.055576z" fill="#00c1fb"/><path d="m77.5941315 93.3074265h-45.1883622c-.9394531 0-1.7010479.7616959-1.7010479 1.7010422 0 .9395599.7615948 1.701149 1.7010479 1.701149h45.1883621c.9394531 0 1.701149-.7615891 1.701149-1.701149.0000001-.9393464-.7616958-1.7010422-1.7011489-1.7010422z" fill="#d9dde6"/><g fill="#717588"><path d="m42.088623 36.740273h11.98981v1.743972h-11.98981z"/><path d="m42.088623 42.449345h5.994905v1.743972h-5.994905z"/><path d="m42.088623 48.391087h11.98981v1.743972h-11.98981z"/><path d="m42.088623 54.100163h5.994905v1.743972h-5.994905z"/><path d="m42.088623 60.041901h11.98981v1.743972h-11.98981z"/><path d="m42.088623 65.750977h5.994905v1.743972h-5.994905z"/><path d="m42.088623 71.692719h11.98981v1.743972h-11.98981z"/><path d="m42.088623 77.401794h5.994905v1.743972h-5.994905z"/><path d="m42.088623 83.343529h11.98981v1.743972h-11.98981z"/><path d="m42.088623 25.433075h11.98981v1.743972h-11.98981z"/><path d="m42.088623 31.142149h5.994905v1.743972h-5.994905z"/></g><g fill="#fff"><path d="m62.158226 20.660444h3.078939v35.804974h-3.078939z" opacity=".25"/><path d="m62.158226 60.667213h3.078939v8.485702h-3.078939z" opacity=".25"/></g></svg>