<svg height="512" viewBox="0 0 512 512" width="512" xmlns="http://www.w3.org/2000/svg"><g><g><path d="m80 16h352a0 0 0 0 1 0 0v440a40 40 0 0 1 -40 40h-272a40 40 0 0 1 -40-40v-440a0 0 0 0 1 0 0z" fill="#96c8ef"/><path d="m400 256v200a8.009 8.009 0 0 1 -8 8h-272a8.009 8.009 0 0 1 -8-8v-216c18 0 18 16 35.994 16s18-16 36-16 18 16 36 16 18-16 36-16 18 16 36 16 18-16 36-16 18 16 36 16 18-16 36-16z" fill="#d80027"/></g><g><path d="m432 8h-352a8 8 0 0 0 -8 8v440a48.051 48.051 0 0 0 48 48h272a48.051 48.051 0 0 0 48-48v-440a8 8 0 0 0 -8-8zm-8 448a32.042 32.042 0 0 1 -32 32h-272a32.042 32.042 0 0 1 -32-32v-432h336z"/><path d="m400 232c-12.04 0-18.56 5.79-23.32 10.02-4.05 3.6-6.72 5.98-12.68 5.98s-8.64-2.38-12.69-5.98c-4.76-4.23-11.28-10.02-23.32-10.02s-18.56 5.79-23.32 10.02c-4.05 3.6-6.72 5.98-12.68 5.98s-8.64-2.38-12.69-5.98c-4.76-4.23-11.27-10.02-23.31-10.02s-18.56 5.79-23.32 10.02c-4.05 3.6-6.72 5.98-12.68 5.98s-8.64-2.38-12.69-5.98c-4.75-4.23-11.27-10.02-23.31-10.02s-18.56 5.79-23.31 10.02c-4.05 3.6-6.73 5.98-12.69 5.98s-8.63-2.38-12.68-5.98c-4.75-4.23-11.27-10.02-23.31-10.02a8 8 0 0 0 -8 8v216a16.021 16.021 0 0 0 16 16h272a16.021 16.021 0 0 0 16-16v-216a8 8 0 0 0 -8-8zm-8 224h-272v-205.8a38.243 38.243 0 0 1 4.68 3.78c4.76 4.23 11.27 10.02 23.31 10.02s18.56-5.79 23.32-10.02c4.05-3.6 6.72-5.98 12.68-5.98s8.63 2.38 12.68 5.98c4.76 4.23 11.28 10.02 23.32 10.02s18.56-5.79 23.31-10.02c4.05-3.6 6.73-5.98 12.69-5.98s8.63 2.38 12.68 5.98c4.76 4.23 11.28 10.02 23.32 10.02s18.56-5.79 23.31-10.02c4.05-3.6 6.73-5.98 12.69-5.98s8.64 2.38 12.69 5.98c4.76 4.23 11.27 10.02 23.32 10.02s18.55-5.79 23.31-10.02a39.059 39.059 0 0 1 4.69-3.78z"/><path d="m112 192h40a8 8 0 0 0 0-16h-32v-16h32a8 8 0 0 0 0-16h-32v-16h32a8 8 0 0 0 0-16h-32v-16h32a8 8 0 0 0 0-16h-32v-16h32a8 8 0 0 0 0-16h-40a8 8 0 0 0 -8 8v128a8 8 0 0 0 8 8z"/><path d="m336 424h-64a8 8 0 0 0 0 16h64a8 8 0 0 0 0-16z"/><path d="m368 424h-8a8 8 0 0 0 0 16h8a8 8 0 0 0 0-16z"/></g></g></svg>